# xmcd
#
# Track frame offsets:
# 150
# 13305
# 24848
# 37910
# 49338
# 61375
# 72920
# 83948
# 95633
# 107463
# 117635
# 130220
# 140225
# 153970
# 166558
# 181423
# 193140
# 206390
# 216305
# 228610
#
# Disc length: 3204 seconds
#
# Revision: 0
# Processed by: cddbd v1.5.1PL0 Copyright (c) Steve Scherf et al.
# Submitted via: Audion 3.0.2 (http://www.panic.com/audion/)
#
DISCID=1f0c8214
DTITLE=Various Artist - Country and Western Part 3
DYEAR=1900
DGENRE=
TTITLE0=Jambalaya/Hank Williams
TTITLE1=No Wedding Bells for Joe/Wanda Jackson
TTITLE2=Great Speckled Bird/Roy Acuff
TTITLE3=Oh, Lonesome Me/Don Gibson
TTITLE4=Funny How Time Slips Away/Willie Nelson
TTITLE5=Young Love/Sonny James
TTITLE6=The Cattle Call/Eddy Arnold
TTITLE7=The Yellow Rose of Texas/Roy Rogers
TTITLE8=Long Gone Lonesome Blues/Hank Williams
TTITLE9=Y'all Come/Grandpa Jones
TTITLE10=I'm so Lonesome I Could Cry/Hank Williams
TTITLE11=Cotton Fields/Buck Owens
TTITLE12=Tennessee Waltz/Pee Wee King
TTITLE13=I Saw the Light/Hank Williams
TTITLE14=Ghost Riders in the Sky/The Sons of the Pioneers
TTITLE15=There Goes My Everything/Jack Greene
TTITLE16=Wildwood Flower/Hank Thompson
TTITLE17=Honky Tonk Blues/Hank Williams
TTITLE18=By the Time I Get to Phoenix/Glen Campbell
TTITLE19=The End of the World/Skeeter Davis
EXTD=
EXTT0=
EXTT1=
EXTT2=
EXTT3=
EXTT4=
EXTT5=
EXTT6=
EXTT7=
EXTT8=
EXTT9=
EXTT10=
EXTT11=
EXTT12=
EXTT13=
EXTT14=
EXTT15=
EXTT16=
EXTT17=
EXTT18=
EXTT19=
PLAYORDER=
